<?xml version="1.0" encoding="UTF-8"?>
<svg  xmlns="http://www.w3.org/2000/svg" viewBox="0 0 81.65 98.25">
  <defs>
    <style>
      .cls-1 {
        fill: none;
        stroke: #f8f4e9;
        stroke-width: 3px;
      }
    </style>
  </defs>
  <path class="cls-1" d="M70.61,36.5c-.07-.42-.16-.9-.24-1.29l-.29-1.67-.96-8.36h.05s-1.57-14.38-1.57-14.38c-.28-2.54-2.54-4.31-5.23-4.01-2.71.3-4.47,2.52-4.2,5.04l1.57,14.44c.03.11.05.23.06.34l.44,4.02c.16,1.45-.89,2.75-2.34,2.91-1.45.16-2.75-.89-2.91-2.34l-.17-1.6c-1.12-1.07-2.79-1.55-4.52-1.1-1.19.31-2.13,1.04-2.76,1.95-.49.71-1.29,1.14-2.15,1.15-.86,0-1.67-.41-2.17-1.12-1.06-1.49-3.02-2.31-5.09-1.77-.65.17-1.14.53-1.63.89l.72,2.74c.19.68.09,1.4-.26,2.01-.35.61-.93,1.05-1.61,1.23-.68.18-1.4.08-2.01-.28-.6-.36-1.04-.95-1.21-1.63l-4.75-18.18c-.64-2.45-3.08-3.9-5.72-3.21-2.61.68-4.1,3.14-3.45,5.61l6.17,23.58c.38.19.83.38,1.26.57.47.2.93.4,1.29.59,1.29.67,1.79,2.26,1.12,3.55-.67,1.29-2.26,1.79-3.55,1.12-2.42-1.27-5.58-2.82-8.52-3.88-2.95-1.06-5.7-1.44-6.91-1.12-.92.25-1.48.61-2.02,1.5-.6.99-.62,1.48.12,2.9.74,1.42,2.46,3.37,4.81,5.57,1.67,1.56,3.64,3.26,5.81,5.13h.01s0,.01,0,.01c3.95,3.4,8.53,7.34,13.03,11.98,8.88,9.16,18.1,10.45,26.23,8.33,12.08-3.16,19.29-15.14,16.25-26.77l-2.53-13.53c-.03-.1-.09-.47-.17-.91M70.61,36.5h0M70.61,36.5s0,0,0,0M20.36,7.2c-5.27,1.38-8.58,6.75-7.21,12.02l5.08,19.42s-.07-.03-.1-.04c-.04-.02-.07-.03-.11-.05-.07-.03-.14-.07-.22-.09-3.36-1.21-6.79-2.1-10.08-1.22-2.04.54-3.98,1.87-5.18,3.86-1.52,2.51-1.24,5.61.03,8.05,1.27,2.44,3.29,4.6,5.81,6.97,1.87,1.75,4.01,3.59,6.3,5.56h0c3.9,3.34,8.23,7.07,12.42,11.39,2.28,2.35,4.66,4.26,7.07,5.79l3.12,11.95c.49,1.89,1.91,3.3,3.51,4.17,1.6.87,3.49,1.34,5.59,1.59,4.2.51,9.36.06,14.83-1.37,5.47-1.43,10.22-3.57,13.64-6.07,1.71-1.25,3.08-2.57,4.06-4.11.97-1.54,1.55-3.47,1.06-5.37l-3.18-12.15c2.5-5.43,3.22-11.69,1.61-17.86l-3.27-18.31-2.3-21.09c-.59-5.41-5.6-9.26-11.02-8.67-5.45.59-9.44,5.44-8.85,10.83l1.14,10.44.07.63c-1.64-.46-3.42-.51-5.18-.05-1.37.36-2.53,1.05-3.58,1.87-2.36-1.75-5.51-2.46-8.58-1.66-.5.13-.95.34-1.4.56-.1.05-.19.09-.29.14l-2.66-10.16c-1.37-5.24-6.83-8.35-12.13-6.97ZM40.41,81.95c6.2,2.27,12.42,2.31,18,.85,5.94-1.55,10.92-4.89,14.54-9.27l1.94,7.43c.04.16.06.48-.41,1.21-.46.73-1.39,1.73-2.73,2.71-2.68,1.96-6.93,3.93-11.87,5.22-4.93,1.29-9.58,1.64-12.87,1.24-1.64-.2-2.95-.61-3.7-1.03-.76-.41-.9-.69-.94-.86l-1.96-7.51Z"/>
</svg>